<svg width="31" height="28" viewBox="0 0 31 28" fill="none" xmlns="http://www.w3.org/2000/svg">
<path fill-rule="evenodd" clip-rule="evenodd" d="M1.99112 0.766801C1.85574 0.224558 1.30709 -0.105112 0.765655 0.0304621C0.224223 0.166036 -0.104955 0.715515 0.0304165 1.25776L1.44764 6.93459L2.76645 12.4455C3.32722 14.7888 3.76862 16.6333 4.2924 18.0662C4.82968 19.536 5.48855 20.6771 6.54566 21.5521C6.63689 21.6276 6.72984 21.701 6.82442 21.7722C7.92045 22.5978 9.18201 22.9736 10.7344 23.1543C12.2478 23.3304 14.1417 23.3304 16.5476 23.3304H17.3474C19.4291 23.3304 21.0678 23.3304 22.388 23.1967C23.7402 23.0598 24.8528 22.7756 25.8541 22.1477C26.329 21.8499 26.7703 21.5014 27.1701 21.1083C28.1117 20.1826 28.6703 19.0202 29.1512 17.5129C29.5049 16.4044 29.8344 15.048 30.2308 13.3928L30.3293 12.9813C30.6219 11.7589 30.8631 10.7514 30.9562 9.93514C31.0529 9.08801 31.0134 8.2814 30.5912 7.54492C30.4106 7.22992 30.1848 6.94319 29.921 6.69389C29.3043 6.11102 28.5303 5.88459 27.6852 5.78132C26.8709 5.68181 25.8364 5.68183 24.5812 5.68186L3.21816 5.68186L1.99112 0.766801ZM4.71689 11.9112L3.71052 7.70594H24.5156C25.8529 7.70594 26.7631 7.70773 27.4404 7.79049C28.101 7.87122 28.3719 8.01281 28.5339 8.16596C28.6538 8.27927 28.7564 8.40961 28.8385 8.55279C28.9495 8.74629 29.0238 9.04308 28.9482 9.70528C28.8796 10.3069 28.7065 11.0719 28.4511 12.1447L18.5267 12.1447C17.9686 12.1447 17.5162 12.5978 17.5162 13.1568C17.5162 13.7157 17.9686 14.1688 18.5267 14.1688L27.9641 14.1688C27.7769 14.9333 27.6062 15.6015 27.4377 16.1929H22.5688C22.0107 16.1929 21.5583 16.646 21.5583 17.2049C21.5583 17.7638 22.0107 18.2169 22.5688 18.2169H26.7279C26.4409 18.8413 26.1308 19.2938 25.7543 19.6639C25.4587 19.9545 25.1326 20.2121 24.7815 20.4322C24.1427 20.8328 23.371 21.0628 22.1847 21.1829C20.9779 21.3051 19.4411 21.3063 17.292 21.3063H16.612C14.1277 21.3063 12.3511 21.3047 10.9678 21.1437C9.61003 20.9857 8.74197 20.684 8.03926 20.1546C7.96935 20.102 7.90065 20.0477 7.83322 19.9919C7.15547 19.4309 6.66017 18.6558 6.19027 17.3703C5.71153 16.0606 5.29591 14.3307 4.71689 11.9112Z" fill="white"/>
<path d="M13.7754 26.5796C13.7754 27.3641 13.1404 28 12.3572 28C11.5739 28 10.9389 27.3641 10.9389 26.5796C10.9389 25.7951 11.5739 25.1592 12.3572 25.1592C13.1404 25.1592 13.7754 25.7951 13.7754 26.5796Z" fill="white"/>
<path d="M22.2851 26.5796C22.2851 27.3641 21.6501 28 20.8669 28C20.0836 28 19.4486 27.3641 19.4486 26.5796C19.4486 25.7951 20.0836 25.1592 20.8669 25.1592C21.6501 25.1592 22.2851 25.7951 22.2851 26.5796Z" fill="white"/>
</svg>
